# xmcd CD database file
#
# Track frame offsets:
#	150
#	9057
#	22100
#	32655
#	42790
#	55202
#	64810
#	74462
#	84212
#	94820
#	107382
#	118955
#	127752
#	135757
#	147732
#
# Disc length: 2167 seconds
#
# Revision: 1
# Processed by: cddbd v1.5.1PL0 Copyright (c) Steve Scherf et al.
# Submitted via: CDex 1.51
#
DISCID=c008750f
DTITLE=Foy Willing and The Riders of the Purple Sage - "Live" From The All-Star Western Theatre Disc 2
DYEAR=1993
DGENRE=Country
TTITLE0=Ragtime Cow Boy Joe
TTITLE1=Have I Told You Lately That I Love You
TTITLE2=Too Late
TTITLE3=My Adobe Hacienda
TTITLE4=Prairie Echoes
TTITLE5=So Long To The Red River Valley
TTITLE6=Across The Alley From The Alamo
TTITLE7=San Antonio Rose
TTITLE8=California
TTITLE9=Tumbling Tumbleweeds
TTITLE10=No One To Cry To
TTITLE11=Dark Eyes
TTITLE12=Among My Souvenirs
TTITLE13=Everything's Going My Way
TTITLE14=Blue Shadows On The Trail
EXTD=YEAR: 1993
EXTT0=
EXTT1=
EXTT2=
EXTT3=
EXTT4=
EXTT5=
EXTT6=
EXTT7=
EXTT8=
EXTT9=
EXTT10=
EXTT11=
EXTT12=
EXTT13=
EXTT14=
PLAYORDER=
